<svg xmlns="http://www.w3.org/2000/svg">

  <symbol id="habr" viewBox="0 0 54 22" fill="none">
    <path
      d="m14.8499 17.0001-5.10399-7.72199 5.05999-7.766h-3.718l-3.38799 5.28-3.344-5.28h-3.849996l5.059996 7.7-5.103996 7.78799h3.761996l3.388-5.302 3.40999 5.302z"
      fill="currentColor" />
    <path
      d="m21.3494 5.36211c-2.97 0-4.664 1.67989-4.972 3.63789h2.992c.176-.594.748-1.15189 1.848-1.15189 1.078 0 1.87.55 1.87 1.606v.528h-2.486c-2.904 0-4.664 1.34199-4.664 3.67399 0 2.288 1.76 3.608 3.96 3.608 1.474 0 2.662-.572 3.366-1.496v1.232h2.97v-7.43599c0-2.772-1.958-4.202-4.884-4.202zm-.572 9.41599c-.99 0-1.628-.484-1.628-1.276 0-.814.704-1.298 1.694-1.298h2.244v.506c0 1.32-1.078 2.068-2.31 2.068z"
      fill="currentColor" />
    <path
      d="m35.1339 5.82411c-1.584 0-2.882.572-3.718 1.738.22-2.134 1.078-3.19 3.234-3.52l4.3501-.638v-2.794003l-4.6581.770003c-4.488.748-5.874 3.74-5.874 8.73399 0 4.488 2.178 7.15 6.028 7.15 3.454 0 5.588-2.64 5.588-5.808 0-3.40999-1.98-5.63199-4.95-5.63199zm-.792 8.75599c-1.672 0-2.596-1.342-2.596-3.146 0-1.73799.968-2.99199 2.618-2.99199 1.606 0 2.508 1.298 2.508 3.01399 0 1.716-.88 3.124-2.53 3.124z"
      fill="currentColor" />
    <path
      d="m48.6512 5.36211c-1.672 0-2.75.726-3.322 1.584v-1.32h-3.08v15.37389h3.212v-5.0999c.572.792 1.65 1.364 3.102 1.364 2.794 0 5.016-2.2 5.016-5.94 0-3.80599-2.222-5.96199-4.928-5.96199zm-.77 9.12999c-1.496 0-2.486-1.21-2.486-3.124v-.088c0-1.91399.99-3.14599 2.486-3.14599s2.464 1.254 2.464 3.18999c0 1.936-.968 3.168-2.464 3.168z"
      fill="currentColor" />
  </symbol>

  <symbol id="hh" viewBox="0 0 40 40" fill="none">
    <g clip-path="url(#clip0_13397_101038)">
      <path d="M20 40c11.046 0 20-8.954 20-20S31.046 0 20 0 0 8.954 0 20s8.954 20 20 20z" fill="#FF0002" />
      <path
        d="M29.73 17.05c-.605-.624-1.465-.965-2.515-.965-1.305 0-2.307.53-2.884 1.523V12.68h-3.026v13.504h3.026v-4.748c0-1.106.227-1.815.568-2.231.33-.416.794-.577 1.295-.577.445 0 .794.142 1.04.397.246.265.388.672.388 1.239v5.91h3.026v-6.506c0-1.106-.322-2.005-.917-2.62zm-13.531-.965c-1.305 0-2.308.53-2.884 1.523V12.68h-3.026v13.504h3.026v-4.748c0-1.106.226-1.815.567-2.231.33-.416.794-.577 1.296-.577.444 0 .794.142 1.04.397.245.265.387.672.387 1.239v5.91h3.026v-6.506c0-1.106-.321-2.005-.926-2.629-.596-.624-1.457-.955-2.506-.955z"
        fill="#fff" />
    </g>
    <defs>
      <clipPath id="clip0_13397_101038">
        <path fill="#fff" d="M0 0h40v40H0z" />
      </clipPath>
    </defs>
  </symbol>
</svg>
