<svg viewBox="0 0 40 40" fill="none" xmlns="http://www.w3.org/2000/svg">
  <g clip-path="url(#clip0_13397_101038)">
    <path d="M20 40c11.046 0 20-8.954 20-20S31.046 0 20 0 0 8.954 0 20s8.954 20 20 20z" fill="#FF0002" />
    <path
      d="M29.73 17.05c-.605-.624-1.465-.965-2.515-.965-1.305 0-2.307.53-2.884 1.523V12.68h-3.026v13.504h3.026v-4.748c0-1.106.227-1.815.568-2.231.33-.416.794-.577 1.295-.577.445 0 .794.142 1.04.397.246.265.388.672.388 1.239v5.91h3.026v-6.506c0-1.106-.322-2.005-.917-2.62zm-13.531-.965c-1.305 0-2.308.53-2.884 1.523V12.68h-3.026v13.504h3.026v-4.748c0-1.106.226-1.815.567-2.231.33-.416.794-.577 1.296-.577.444 0 .794.142 1.04.397.245.265.387.672.387 1.239v5.91h3.026v-6.506c0-1.106-.321-2.005-.926-2.629-.596-.624-1.457-.955-2.506-.955z"
      fill="#fff" />
  </g>
  <defs>
    <clipPath id="clip0_13397_101038">
      <path fill="#fff" d="M0 0h40v40H0z" />
    </clipPath>
  </defs>
</svg>
